<?xml version="1.0" standalone="no"?><!DOCTYPE svg PUBLIC "-//W3C//DTD SVG 1.1//EN" "http://www.w3.org/Graphics/SVG/1.1/DTD/svg11.dtd"><svg t="1501570840936" class="icon" style="" viewBox="0 0 1024 1024" version="1.1" xmlns="http://www.w3.org/2000/svg" p-id="2580" xmlns:xlink="http://www.w3.org/1999/xlink" width="32" height="32"><defs><style type="text/css"></style></defs><path d="M855.309108 361.02315s-0.097154-6.606452 0-26.231499C978.791461 41.48463 804.011954 0 804.011954 0c39.055787 202.565465-108.812144 256-108.812144 256H311.248387s-147.770778-53.434535-108.812144-256c0 0-174.87666 41.581784-51.2 334.791651 0.097154 19.625047 0 26.231499 0 26.231499s-134.363567-6.120683-134.363567 45.9537c0 52.171537 102.108539 59.06945 192.072865 59.06945 0 52.365844 57.417837 209.171917 102.4 256-0.680076 24.288425-44.885009 51.2-44.88501 137.8611S303.670398 1024 503.126945 1024s236.763567-77.431499 236.763567-164.0926-44.10778-113.572676-44.885009-137.8611c44.982163-46.73093 102.4-203.634156 102.4-256 89.964326 0 192.072865-6.995066 192.072865-59.06945 0-52.171537-134.16926-45.9537-134.16926-45.9537zM413.551233 931.898292c-28.271727 0-51.2-23.608349-51.2-52.462998s22.928273-52.462998 51.2-52.462998 51.2 23.608349 51.2 52.462998-22.928273 52.462998-51.2 52.462998z m2.914611-290.100949V606.239089H489.525427V358.594307l-74.905503 21.665276v-37.889944l116.001518-33.712333V606.239089h72.865275v35.558254H416.465844z m176.333966 290.198103c-28.271727 0-51.2-23.414042-51.2-52.462998s22.928273-52.462998 51.2-52.462998 51.2 23.608349 51.2 52.462998c0 28.951803-22.928273 52.462998-51.2 52.462998z" fill="#D81E06" p-id="2581"></path><path d="M603.486717 606.239089h-72.865275V308.754459l-116.001518 33.61518v37.987097l74.905503-21.762429V606.239089h-73.059583v35.558254h187.020873z" fill="#FFFFFF" p-id="2582"></path></svg>