<?xml version="1.0" standalone="no"?><!DOCTYPE svg PUBLIC "-//W3C//DTD SVG 1.1//EN" "http://www.w3.org/Graphics/SVG/1.1/DTD/svg11.dtd"><svg t="1501570849369" class="icon" style="" viewBox="0 0 1024 1024" version="1.1" xmlns="http://www.w3.org/2000/svg" p-id="2705" xmlns:xlink="http://www.w3.org/1999/xlink" width="32" height="32"><defs><style type="text/css"></style></defs><path d="M864.2 361s-0.1-6.6 0-26.2C987.7 41.5 812.9 0 812.9 0c39 202.6-108.8 256-108.8 256h-384S172.3 202.6 211.3 0c0 0-174.9 41.6-51.2 334.8 0.1 19.6 0 26.2 0 26.2s-134.4-6.2-134.4 45.9c0 52.2 102.1 59.1 192 59.1 0 52.3 57.4 209.2 102.4 256-0.7 24.3-44.8 51.2-44.8 137.9S312.6 1024 512 1024c199.4 0 236.8-77.5 236.8-164.1S704.6 746.3 703.9 722c45-46.8 102.4-203.6 102.4-256 89.9 0 192-7 192-59.1S864.2 361 864.2 361zM422.4 931.9c-28.3 0-51.2-23.6-51.2-52.5s23-52.5 51.2-52.5 51.2 23.6 51.2 52.5c0.1 28.9-22.9 52.5-51.2 52.5z m-14.5-290.1V606l94.7-94.5c26.1-26.1 43.6-46.8 52.4-62 8.8-15.2 13.3-31 13.3-47.3 0-18.5-5.2-32.7-15.6-42.6-10.4-9.9-25.4-14.8-45.1-14.8-29.1 0-56.8 12.4-83.2 37.1V340c25.7-19.8 55.6-29.7 89.7-29.7 29.3 0 52.5 7.9 69.5 23.8s25.5 37.2 25.5 64c0 20.2-5.4 40-16.3 59.5-10.9 19.4-31.5 44.2-61.8 74.2l-74.3 72.6v0.8h149.5v36.6H407.9zM601.7 932c-28.3 0-51.2-23.4-51.2-52.5s23-52.5 51.2-52.5 51.2 23.6 51.2 52.5c0 29-22.9 52.5-51.2 52.5z" fill="#EA611B" p-id="2706"></path><path d="M606.2 605.2H456.7v-0.8l74.3-72.6c30.3-30 50.9-54.8 61.8-74.2 10.9-19.4 16.3-39.3 16.3-59.5 0-26.8-8.5-48.1-25.5-64-17-15.9-40.1-23.8-69.5-23.8-34.1 0-64 9.9-89.7 29.7v41.9c26.4-24.7 54.1-37.1 83.2-37.1 19.6 0 34.7 4.9 45.1 14.8 10.4 9.9 15.6 24.1 15.6 42.6 0 16.3-4.4 32-13.3 47.3-8.8 15.2-26.3 35.9-52.4 62L407.9 606v35.8h198.3v-36.6z" fill="#FFFFFF" p-id="2707"></path></svg>