<?xml version="1.0" standalone="no"?><!DOCTYPE svg PUBLIC "-//W3C//DTD SVG 1.1//EN" "http://www.w3.org/Graphics/SVG/1.1/DTD/svg11.dtd"><svg t="1501570855879" class="icon" style="" viewBox="0 0 1024 1024" version="1.1" xmlns="http://www.w3.org/2000/svg" p-id="2830" xmlns:xlink="http://www.w3.org/1999/xlink" width="32" height="32"><defs><style type="text/css"></style></defs><path d="M864.2 361s-0.1-6.6 0-26.2C987.7 41.5 812.9 0 812.9 0c39 202.6-108.8 256-108.8 256h-384S172.3 202.6 211.3 0c0 0-174.9 41.6-51.2 334.8 0.1 19.6 0 26.2 0 26.2s-134.4-6.2-134.4 45.9c0 52.2 102.1 59.1 192 59.1 0 52.3 57.4 209.2 102.4 256-0.7 24.3-44.8 51.2-44.8 137.9S312.6 1024 512 1024c199.4 0 236.8-77.5 236.8-164.1S704.6 746.3 703.9 722c45-46.8 102.4-203.6 102.4-256 89.9 0 192-7 192-59.1S864.2 361 864.2 361zM422.4 931.9c-28.3 0-51.2-23.6-51.2-52.5s23-52.5 51.2-52.5 51.2 23.6 51.2 52.5c0.1 28.9-22.9 52.5-51.2 52.5z m68-284.6c-30.9 0-55.8-5.8-74.7-17.3v-42.7c22.3 17.3 47.5 25.9 75.6 25.9 22.5 0 40.2-5.5 53.4-16.5 13.1-11 19.7-25.8 19.7-44.3 0-41.3-29.5-61.9-88.6-61.9h-27.2v-34.1h25.9c52.3 0 78.5-19.4 78.5-58.1 0-35.8-20-53.7-60-53.7-22.9 0-44.4 7.7-64.6 23.2v-38.9c21.3-12.3 46.2-18.5 74.7-18.5 27.8 0 50.1 7.3 66.9 21.8 16.8 14.5 25.3 33.4 25.3 56.5 0 42.7-21.8 70.1-65.3 82.3v0.8c23.6 2.5 42.2 10.8 55.9 24.9 13.7 14.1 20.5 31.7 20.5 52.7 0 29.3-10.6 53-31.7 70.9-21.1 18-49.2 27-84.3 27zM601.7 932c-28.3 0-51.2-23.4-51.2-52.5s23-52.5 51.2-52.5 51.2 23.6 51.2 52.5c0 29-22.9 52.5-51.2 52.5z" fill="#FF9A22" p-id="2831"></path><path d="M606.4 549.4c0-21.1-6.8-38.6-20.5-52.7-13.7-14.1-32.3-22.4-55.9-24.9v-0.8c43.5-12.2 65.3-39.6 65.3-82.3 0-23.2-8.4-42-25.3-56.5-16.8-14.5-39.2-21.8-66.9-21.8-28.5 0-53.4 6.2-74.7 18.5v38.9c20.2-15.4 41.8-23.2 64.6-23.2 40 0 60 17.9 60 53.7 0 38.7-26.2 58.1-78.5 58.1h-25.9v34.1h27.2c59.1 0 88.6 20.6 88.6 61.9 0 18.5-6.6 33.3-19.7 44.3s-30.9 16.5-53.4 16.5c-28.1 0-53.3-8.6-75.6-25.9V630c18.9 11.5 43.9 17.3 74.7 17.3 35.1 0 63.2-9 84.3-26.9 21.2-18 31.7-41.7 31.7-71z" fill="#FFFFFF" p-id="2832"></path></svg>