<?xml version="1.0" standalone="no"?><!DOCTYPE svg PUBLIC "-//W3C//DTD SVG 1.1//EN" "http://www.w3.org/Graphics/SVG/1.1/DTD/svg11.dtd"><svg t="1502159395857" class="icon" style="" viewBox="0 0 1024 1024" version="1.1" xmlns="http://www.w3.org/2000/svg" p-id="3248" xmlns:xlink="http://www.w3.org/1999/xlink" width="32" height="32"><defs><style type="text/css"></style></defs><path d="M512 64C264.576 64 64 264.576 64 512c0 247.422 200.576 448 448 448 247.422 0 448-200.578 448-448C960 264.576 759.422 64 512 64zM636.046 707.662c-29.582 35.284-71.948 54.712-119.292 54.712-52.352 0-96.262-20.952-126.982-60.586-28.8-37.16-44.024-88.5-44.024-148.468 0-86.524 27.494-163.194 77.416-215.89 45.836-48.186 116.558-75.804 194.062-75.804l19.784 0 1.032 94.696-20.218 0c-51.504 0-92.188 15.292-120.92 45.446-10.218 10.724-18.02 22.388-23.972 33.902 18.616-8.488 39.248-12.93 61.068-12.93 41.12 0 78.042 15.864 103.968 44.67 26.354 29.284 40.284 69.886 40.284 117.42C678.25 631.58 663.262 675.206 636.046 707.662z" p-id="3249" fill="#979598"></path><path d="M512.596 512.086c-28.912 0-58.368 29.104-58.476 57.72 0.866 48.79 17.77 100.846 62.636 100.846 24.232 0 52.532-21.386 52.532-81.66C569.288 551.812 554.394 512.086 512.596 512.086z" p-id="3250" fill="#979598"></path></svg>