<?xml version="1.0" standalone="no"?><!DOCTYPE svg PUBLIC "-//W3C//DTD SVG 1.1//EN" "http://www.w3.org/Graphics/SVG/1.1/DTD/svg11.dtd"><svg t="1502437720403" class="icon" style="" viewBox="0 0 1024 1024" version="1.1" xmlns="http://www.w3.org/2000/svg" p-id="23087" xmlns:xlink="http://www.w3.org/1999/xlink" width="128" height="128"><defs><style type="text/css"></style></defs><path d="M29.257143 512C29.257143 243.809524 243.809524 29.257143 512 29.257143s482.742857 214.552381 482.742857 482.742857-214.552381 482.742857-482.742857 482.742857S29.257143 775.314286 29.257143 512z" fill="#F87106" p-id="23088"></path><path d="M429.104762 775.314286l-48.761905 63.390476h-34.133333c-48.761905 0-87.771429 9.752381-117.028572 34.133333-4.87619 4.87619-14.628571 24.380952-14.628571 24.380953s4.87619 97.52381 321.828571 97.523809 268.190476-87.771429 273.066667-92.647619c4.87619-4.87619-4.87619-19.504762-9.752381-24.380952-24.380952-24.380952-68.266667-39.009524-117.028571-39.009524h-39.009524l-48.761905-63.390476c-4.87619-4.87619-48.761905 19.504762-87.771428 39.009524-9.752381-24.380952-34.133333-39.009524-78.019048-39.009524z" fill="#FCC640" p-id="23089"></path><path d="M336.457143 590.019048c-43.885714-102.4-14.628571-195.047619-4.876191-209.676191 0-58.514286 19.504762-112.152381 146.285715-117.028571 82.895238-48.761905 165.790476-39.009524 204.8 19.504762 19.504762 29.257143 24.380952 68.266667 14.628571 102.4 9.752381 29.257143 39.009524 160.914286-9.752381 209.67619-4.87619 97.52381-82.895238 214.552381-175.542857 214.552381-92.647619 0-175.542857-117.028571-175.542857-219.428571z" fill="#FFFFFF" p-id="23090"></path></svg>