<?xml version="1.0" standalone="no"?><!DOCTYPE svg PUBLIC "-//W3C//DTD SVG 1.1//EN" "http://www.w3.org/Graphics/SVG/1.1/DTD/svg11.dtd"><svg t="1502437634261" class="icon" style="" viewBox="0 0 1024 1024" version="1.1" xmlns="http://www.w3.org/2000/svg" p-id="19668" xmlns:xlink="http://www.w3.org/1999/xlink" width="128" height="128"><defs><style type="text/css"></style></defs><path d="M512 972.8C256 972.8 51.2 768 51.2 512S256 51.2 512 51.2 972.8 256 972.8 512 768 972.8 512 972.8zM387.2 182.4c-3.2-6.4-12.8-12.8-19.2-9.6-86.4 38.4-160 108.8-198.4 201.6-3.2 6.4 0 16 9.6 19.2 6.4 3.2 16 0 19.2-9.6 35.2-86.4 102.4-153.6 182.4-185.6 6.4 0 9.6-9.6 6.4-16z m25.6 54.4c-3.2-6.4-12.8-12.8-19.2-9.6-73.6 32-134.4 89.6-163.2 169.6-3.2 6.4 0 16 9.6 19.2 6.4 3.2 16 0 19.2-9.6 28.8-70.4 83.2-124.8 150.4-153.6 3.2 3.2 6.4-6.4 3.2-16z m25.6 57.6c-6.4-6.4-12.8-9.6-22.4-6.4-57.6 25.6-105.6 73.6-131.2 134.4-3.2 6.4 0 16 9.6 19.2 6.4 3.2 16 0 19.2-9.6 22.4-54.4 64-96 115.2-118.4 6.4 0 12.8-9.6 9.6-19.2z m73.6 60.8c-86.4 0-156.8 70.4-156.8 156.8s70.4 156.8 156.8 156.8 156.8-70.4 156.8-156.8-70.4-156.8-156.8-156.8z m224 230.4c-6.4-3.2-16 0-19.2 9.6-22.4 54.4-64 96-115.2 118.4-6.4 3.2-12.8 12.8-9.6 19.2s12.8 12.8 19.2 9.6c57.6-25.6 105.6-73.6 131.2-134.4 3.2-9.6 0-19.2-6.4-22.4z m57.6 25.6c-6.4-3.2-16 0-19.2 9.6-28.8 70.4-83.2 124.8-150.4 153.6-6.4 3.2-12.8 12.8-9.6 19.2s12.8 12.8 19.2 9.6c73.6-32 134.4-89.6 163.2-169.6 6.4-12.8 3.2-19.2-3.2-22.4z m57.6 22.4c-6.4-3.2-16 0-19.2 9.6-35.2 86.4-102.4 153.6-182.4 185.6-9.6 3.2-12.8 12.8-9.6 19.2s12.8 12.8 19.2 9.6c86.4-38.4 160-108.8 198.4-201.6 3.2-9.6 0-19.2-6.4-22.4zM512 579.2c-38.4 0-67.2-32-67.2-67.2s32-67.2 67.2-67.2 67.2 32 67.2 67.2-28.8 67.2-67.2 67.2z m0-92.8c-16 0-25.6 12.8-25.6 25.6 0 16 12.8 25.6 25.6 25.6 16 0 25.6-12.8 25.6-25.6 0-16-9.6-25.6-25.6-25.6z" fill="#7ADA97" p-id="19669"></path></svg>