<?xml version="1.0" standalone="no"?><!DOCTYPE svg PUBLIC "-//W3C//DTD SVG 1.1//EN" "http://www.w3.org/Graphics/SVG/1.1/DTD/svg11.dtd"><svg t="1502437102668" class="icon" style="" viewBox="0 0 1024 1024" version="1.1" xmlns="http://www.w3.org/2000/svg" p-id="4300" xmlns:xlink="http://www.w3.org/1999/xlink" width="128" height="128"><defs><style type="text/css"></style></defs><path d="M512 512m-512 0a512 512 0 1 0 1024 0 512 512 0 1 0-1024 0Z" fill="#FFD05B" p-id="4301"></path><path d="M799.04252 871.609449H224.95748c-15.319685 0-28.220472-12.094488-28.220472-28.220473V179.804724c0-15.319685 12.094488-28.220472 28.220472-28.220472H798.23622c15.319685 0 28.220472 12.094488 28.220473 28.220472v664.390552c0 15.319685-12.094488 27.414173-27.414173 27.414173z" fill="#FFFFFF" p-id="4302"></path><path d="M826.456693 314.456693V179.804724c0-15.319685-12.094488-27.414173-27.414173-27.414173H224.95748c-15.319685 0-27.414173 12.094488-27.414173 27.414173V314.456693h628.913386z" fill="#FF7058" p-id="4303"></path><path d="M361.222047 272.529134l-36.283464-52.409449v48.377953c0 4.031496-3.225197 7.256693-7.256693 7.256693s-7.256693-3.225197-7.256693-7.256693V197.543307c0-4.031496 3.225197-7.256693 7.256693-7.256693 2.418898 0 4.031496 0.806299 5.644094 3.225197l36.283465 52.409449V197.543307c0-4.031496 3.225197-7.256693 7.256693-7.256693s7.256693 3.225197 7.256693 7.256693v70.954331c0 4.031496-3.225197 7.256693-7.256693 7.256693-2.418898 0-4.837795-0.806299-5.644095-3.225197zM473.297638 268.497638c0 4.031496-3.225197 7.256693-7.256693 7.256693H427.338583c-4.031496 0-7.256693-3.225197-7.256693-7.256693V197.543307c0-4.031496 3.225197-7.256693 7.256693-7.256693h38.702362c4.031496 0 7.256693 3.225197 7.256693 7.256693s-3.225197 7.256693-7.256693 7.256693h-31.445669V225.76378H459.590551c4.031496 0 7.256693 3.225197 7.256693 7.256692s-3.225197 7.256693-7.256693 7.256693h-24.995275v20.96378h31.445669c4.031496 0 7.256693 3.225197 7.256693 7.256693zM610.368504 195.124409L587.792126 249.952756l-8.062992-20.15748 12.900787-29.833071c1.612598-4.837795-1.612598-9.675591-6.450393-9.675591-3.225197 0-5.644094 1.612598-6.450394 4.031496l-7.256693 16.932284-7.256693-16.932284c-0.806299-2.418898-4.031496-4.031496-6.450394-4.031496-4.837795 0-8.869291 4.837795-6.450393 9.675591l12.900787 29.833071-8.062992 20.15748-23.382677-54.828347c-0.806299-2.418898-4.031496-4.031496-6.450394-4.031496-4.837795 0-8.869291 4.837795-6.450394 9.675591l29.833071 70.954331c0.806299 2.418898 4.031496 4.031496 6.450394 4.031496s5.644094-1.612598 6.450394-4.031496l9.67559-22.576378 9.675591 22.576378c0.806299 2.418898 4.031496 4.031496 6.450393 4.031496s5.644094-1.612598 6.450394-4.031496l29.833071-70.954331c1.612598-4.837795-1.612598-9.675591-6.450394-9.675591-4.837795 0-8.062992 1.612598-8.869291 4.031496z" fill="#FFFFFF" p-id="4304"></path><path d="M436.207874 350.740157h151.584252v20.96378h-151.584252zM633.751181 350.740157h151.584252v20.96378h-151.584252zM436.207874 407.987402h151.584252v20.963779h-151.584252zM633.751181 407.987402h151.584252v20.963779h-151.584252zM436.207874 465.234646h151.584252v20.963779h-151.584252zM633.751181 465.234646h151.584252v20.963779h-151.584252zM238.664567 522.48189h151.584252v20.963779h-151.584252z" fill="#E6E9EE" p-id="4305"></path><path d="M238.664567 350.740157h151.584252v145.940158h-151.584252z" fill="#84DBFF" p-id="4306"></path><path d="M436.207874 522.48189h151.584252v20.963779h-151.584252zM633.751181 522.48189h151.584252v20.963779h-151.584252zM238.664567 579.729134h151.584252V600.692913h-151.584252zM436.207874 579.729134h151.584252V600.692913h-151.584252z" fill="#E6E9EE" p-id="4307"></path><path d="M633.751181 579.729134h151.584252v135.458268h-151.584252z" fill="#84DBFF" p-id="4308"></path><path d="M238.664567 636.976378h151.584252v20.963779h-151.584252zM436.207874 636.976378h151.584252v20.963779h-151.584252zM238.664567 693.417323h151.584252v20.963779h-151.584252zM436.207874 693.417323h151.584252v20.963779h-151.584252zM238.664567 750.664567h151.584252v20.963779h-151.584252zM436.207874 750.664567h151.584252v20.963779h-151.584252zM633.751181 750.664567h151.584252v20.963779h-151.584252zM238.664567 807.911811h151.584252v20.96378h-151.584252zM436.207874 807.911811h151.584252v20.96378h-151.584252zM633.751181 807.911811h151.584252v20.96378h-151.584252z" fill="#E6E9EE" p-id="4309"></path><path d="M686.966929 225.76378c-5.644094 0-10.48189-4.837795-10.48189-10.48189 0-5.644094 4.837795-10.48189 10.48189-10.48189 3.225197 0 5.644094 0.806299 8.062992 3.225197a6.047244 6.047244 0 0 0 9.675591 0 6.047244 6.047244 0 0 0 0-9.675591c-4.837795-4.837795-11.288189-8.062992-17.738583-8.062992-13.707087 0-24.995276 11.288189-24.995275 24.995276s11.288189 24.995276 24.995275 24.995275c5.644094 0 10.48189 4.837795 10.48189 10.48189s-4.837795 10.48189-10.48189 10.48189c-3.225197 0-5.644094-0.806299-8.062992-3.225197a6.047244 6.047244 0 0 0-9.675591 0 6.047244 6.047244 0 0 0 0 9.675591c4.837795 4.837795 11.288189 8.062992 17.738583 8.062992 13.707087 0 24.995276-11.288189 24.995276-24.995276s-11.288189-24.995276-24.995276-24.995275z" fill="#FFFFFF" p-id="4310"></path></svg>