<?xml version="1.0" standalone="no"?><!DOCTYPE svg PUBLIC "-//W3C//DTD SVG 1.1//EN" "http://www.w3.org/Graphics/SVG/1.1/DTD/svg11.dtd"><svg t="1502438060630" class="icon" style="" viewBox="0 0 1024 1024" version="1.1" xmlns="http://www.w3.org/2000/svg" p-id="29223" xmlns:xlink="http://www.w3.org/1999/xlink" width="128" height="128"><defs><style type="text/css"></style></defs><path d="M512 409.6c-56.32 0-102.4 46.08-102.4 102.4s46.08 102.4 102.4 102.4 102.4-46.08 102.4-102.4-46.08-102.4-102.4-102.4z" fill="#FFD654" p-id="29224"></path><path d="M512 384c-70.4 0-128 57.6-128 128s57.6 128 128 128 128-57.6 128-128-57.6-128-128-128z m-102.4 128c0-56.32 46.08-102.4 102.4-102.4s102.4 46.08 102.4 102.4-46.08 102.4-102.4 102.4-102.4-46.08-102.4-102.4z" fill="#2B3B48" p-id="29225"></path><path d="M736 811.52c-20.48 3.84-39.68 5.12-57.6 5.12-38.4 0-71.68-7.68-106.24-23.04-5.12 16.64-16.64 25.6-34.56 25.6h-48.64c-21.76 0-33.28-10.24-37.12-32l-1.28-11.52c-1.28-10.24-2.56-20.48-5.12-29.44l-1.28-1.28c-14.08-6.4-28.16-12.8-42.24-17.92h-2.56c-7.68 5.12-14.08 10.24-23.04 15.36-3.84 2.56-8.96 6.4-12.8 8.96-17.92 12.8-33.28 11.52-47.36-3.84L281.6 712.96c-14.08-14.08-15.36-29.44-3.84-47.36 2.56-5.12 6.4-8.96 8.96-12.8 5.12-7.68 10.24-15.36 15.36-21.76v-2.56c-5.12-15.36-11.52-29.44-17.92-43.52 0 0-1.28-1.28-2.56-1.28-7.68-1.28-16.64-3.84-25.6-5.12-5.12-1.28-11.52-1.28-16.64-2.56-21.76-3.84-32-16.64-32-37.12-25.6-10.24-51.2-15.36-75.52-15.36-47.36 0-84.48 19.2-102.4 33.28C49.92 803.84 258.56 998.4 512 998.4c209.92 0 389.12-133.12 456.96-320-66.56 70.4-151.04 120.32-232.96 133.12z" fill="#9CE7FD" p-id="29226"></path><path d="M512 0C229.12 0 0 229.12 0 512s229.12 512 512 512 512-229.12 512-512S794.88 0 512 0zM318.72 380.16c-8.96-11.52-16.64-23.04-24.32-34.56-5.12-7.68-5.12-8.96 1.28-15.36 11.52-11.52 21.76-23.04 33.28-33.28 6.4-6.4 7.68-6.4 15.36-1.28 10.24 7.68 21.76 15.36 34.56 25.6 8.96 6.4 17.92 7.68 28.16 2.56 15.36-7.68 30.72-12.8 42.24-17.92 6.4-2.56 16.64-7.68 17.92-21.76 1.28-10.24 3.84-21.76 5.12-32l1.28-8.96c2.56-11.52 3.84-12.8 15.36-12.8h42.24c12.8 0 12.8 1.28 15.36 12.8 2.56 12.8 3.84 25.6 6.4 38.4 1.28 11.52 7.68 19.2 19.2 23.04 12.8 3.84 26.88 10.24 42.24 16.64 11.52 5.12 20.48 5.12 30.72-2.56 8.96-6.4 17.92-12.8 28.16-19.2l5.12-5.12c7.68-5.12 10.24-5.12 15.36 1.28l2.56 2.56c10.24 10.24 21.76 20.48 32 32 1.28 1.28 2.56 5.12 5.12 7.68l-3.84 7.68c-7.68 10.24-15.36 23.04-25.6 35.84-8.96 11.52-5.12 21.76-2.56 28.16 7.68 15.36 12.8 29.44 17.92 42.24 3.84 11.52 10.24 16.64 21.76 17.92 10.24 1.28 20.48 2.56 30.72 5.12l10.24 1.28c8.96 1.28 10.24 3.84 10.24 11.52v48.64c0 7.68-1.28 10.24-10.24 11.52l-12.8 2.56c-10.24 1.28-20.48 3.84-32 5.12-7.68 1.28-15.36 7.68-17.92 15.36-6.4 15.36-14.08 30.72-19.2 47.36-2.56 6.4-2.56 16.64 2.56 24.32 5.12 7.68 11.52 16.64 16.64 24.32 3.84 3.84 6.4 8.96 8.96 12.8 5.12 6.4 5.12 8.96-1.28 14.08l-34.56 34.56c-5.12 5.12-7.68 6.4-15.36 1.28l-11.52-7.68c-7.68-6.4-16.64-11.52-25.6-17.92-7.68-5.12-17.92-3.84-24.32-2.56-16.64 6.4-32 12.8-47.36 19.2-7.68 3.84-14.08 11.52-15.36 19.2-1.28 3.84-1.28 7.68-2.56 12.8-1.28 6.4-2.56 11.52-2.56 17.92-1.28 5.12-1.28 8.96-2.56 14.08-1.28 7.68-3.84 8.96-11.52 8.96h-48.64c-8.96 0-10.24-1.28-12.8-11.52l1.28-10.24c-1.28-10.24-3.84-20.48-5.12-32-1.28-7.68-7.68-15.36-15.36-19.2-15.36-6.4-29.44-12.8-44.8-19.2-2.56-1.28-6.4-1.28-8.96-1.28-5.12 0-11.52 1.28-15.36 3.84-8.96 5.12-16.64 11.52-24.32 16.64-3.84 2.56-7.68 6.4-12.8 8.96-7.68 5.12-8.96 5.12-15.36-1.28l-34.56-34.56c-5.12-5.12-6.4-7.68-1.28-14.08 2.56-3.84 6.4-8.96 8.96-12.8 5.12-7.68 11.52-15.36 16.64-23.04 5.12-7.68 5.12-17.92 2.56-24.32l-19.2-46.08c-3.84-7.68-11.52-14.08-19.2-15.36-8.96-2.56-17.92-3.84-26.88-5.12-5.12-1.28-11.52-1.28-16.64-2.56-8.96-1.28-10.24-3.84-10.24-12.8v-47.36c0-7.68 1.28-10.24 8.96-11.52 14.08-2.56 28.16-5.12 42.24-6.4 11.52-1.28 19.2-7.68 23.04-20.48 3.84-12.8 8.96-25.6 16.64-39.68 3.84-12.8 2.56-23.04-3.84-32z m-81.92 194.56c5.12 1.28 11.52 2.56 16.64 2.56 8.96 1.28 17.92 2.56 25.6 5.12 0 0 1.28 1.28 2.56 1.28 6.4 14.08 12.8 29.44 17.92 43.52v2.56c-5.12 7.68-10.24 14.08-15.36 21.76-3.84 3.84-6.4 8.96-8.96 12.8-11.52 16.64-10.24 32 3.84 47.36l34.56 34.56c15.36 15.36 29.44 16.64 47.36 3.84 3.84-2.56 8.96-6.4 12.8-8.96 7.68-5.12 15.36-11.52 23.04-15.36h2.56c14.08 5.12 28.16 11.52 42.24 17.92l1.28 1.28c2.56 10.24 3.84 19.2 5.12 29.44l1.28 11.52c3.84 21.76 15.36 32 37.12 32h48.64c17.92 0 30.72-8.96 34.56-25.6 34.56 15.36 67.84 23.04 106.24 23.04 17.92 0 37.12-1.28 57.6-5.12 81.92-12.8 166.4-62.72 232.96-133.12C901.12 865.28 721.92 998.4 512 998.4 258.56 998.4 49.92 803.84 28.16 555.52c17.92-14.08 55.04-33.28 102.4-33.28 24.32 0 49.92 5.12 75.52 15.36-1.28 20.48 8.96 33.28 30.72 37.12z m495.36 211.2c-19.2 2.56-37.12 5.12-53.76 5.12-35.84 0-67.84-7.68-101.12-23.04 1.28-7.68 2.56-14.08 3.84-21.76 0 0 1.28-1.28 1.28-2.56 14.08-6.4 28.16-12.8 44.8-19.2h1.28c7.68 5.12 15.36 10.24 24.32 16.64 3.84 2.56 7.68 5.12 11.52 8.96 16.64 11.52 33.28 11.52 48.64-3.84l34.56-34.56c14.08-15.36 15.36-30.72 3.84-47.36-3.84-5.12-6.4-8.96-10.24-14.08-5.12-7.68-11.52-15.36-15.36-21.76v-2.56c5.12-15.36 11.52-30.72 19.2-44.8l1.28-1.28c10.24-2.56 19.2-3.84 29.44-5.12l12.8-2.56c20.48-3.84 32-15.36 32-35.84v-48.64c0-20.48-10.24-33.28-32-37.12l-10.24-1.28c-10.24-1.28-21.76-3.84-32-5.12v-1.28c-5.12-14.08-11.52-28.16-19.2-44.8-1.28-1.28-1.28-2.56 0-1.28 8.96-12.8 17.92-25.6 25.6-37.12 2.56-3.84 3.84-7.68 6.4-11.52 1.28-1.28 1.28-3.84 2.56-5.12 1.28-3.84 1.28-8.96 0-11.52-1.28-1.28-1.28-2.56-2.56-5.12-2.56-3.84-5.12-8.96-8.96-12.8-10.24-11.52-21.76-21.76-32-33.28l-2.56-2.56c-14.08-14.08-30.72-15.36-48.64-3.84l-5.12 3.84c-8.96 6.4-19.2 12.8-28.16 20.48-1.28 0-1.28 1.28-1.28 1.28s-1.28 0-2.56-1.28c-16.64-7.68-32-14.08-46.08-17.92h-1.28v-1.28c-2.56-12.8-3.84-25.6-6.4-39.68-3.84-24.32-15.36-34.56-40.96-34.56h-43.52c-23.04 0-35.84 10.24-39.68 33.28l-1.28 7.68c-2.56 11.52-3.84 23.04-5.12 34.56l-2.56 1.28c-12.8 5.12-29.44 11.52-44.8 19.2H396.8c-12.8-8.96-24.32-17.92-34.56-25.6-17.92-12.8-33.28-11.52-48.64 3.84l-33.28 33.28c-15.36 15.36-16.64 30.72-3.84 47.36 7.68 11.52 16.64 23.04 25.6 35.84 0 1.28 1.28 1.28 1.28 1.28s0 1.28-1.28 2.56c-7.68 15.36-12.8 29.44-17.92 43.52 0 1.28-1.28 1.28-1.28 2.56H281.6c-14.08 2.56-28.16 3.84-42.24 7.68-19.2 3.84-29.44 16.64-29.44 35.84v20.48c-26.88-8.96-52.48-12.8-75.52-12.8-46.08 0-80.64 15.36-103.68 29.44v-12.8C25.6 243.2 243.2 25.6 512 25.6s486.4 217.6 486.4 486.4c0 35.84-3.84 71.68-11.52 106.24-66.56 87.04-162.56 153.6-254.72 167.68z" fill="#2B3B48" p-id="29227"></path></svg>