<?xml version="1.0" standalone="no"?><!DOCTYPE svg PUBLIC "-//W3C//DTD SVG 1.1//EN" "http://www.w3.org/Graphics/SVG/1.1/DTD/svg11.dtd"><svg t="1502437300692" class="icon" style="" viewBox="0 0 1024 1024" version="1.1" xmlns="http://www.w3.org/2000/svg" p-id="8481" xmlns:xlink="http://www.w3.org/1999/xlink" width="128" height="128"><defs><style type="text/css"></style></defs><path d="M511.364 512.897m-500 0a500 500 0 1 0 1000 0 500 500 0 1 0-1000 0Z" fill="#FFFFFF" p-id="8482"></path><path d="M511.365 65.454c-247.118 0-447.446 200.328-447.446 447.446 0 247.116 200.328 447.441 447.446 447.441 247.114 0 447.443-200.325 447.443-447.441-0.001-247.118-200.33-447.446-447.443-447.446z" fill="#704BB7" p-id="8483"></path><path d="M511.365 121.131c-216.192 0-391.451 175.401-391.451 391.768 0 216.365 175.259 391.764 391.451 391.764 216.191 0 391.447-175.399 391.447-391.764 0-216.367-175.256-391.768-391.447-391.768z" fill="#8767D3" p-id="8484"></path><path d="M655.634 129.269l7.373 14.959 16.487 2.398-11.93 11.644 2.816 16.441-14.746-7.762-14.745 7.762 2.816-16.441-11.93-11.644 16.487-2.398zM896.714 476.642l7.373 14.959L920.573 494l-11.93 11.643 2.816 16.442-14.745-7.763-14.746 7.763 2.816-16.442L872.854 494l16.487-2.399zM835.954 633.217l8.786 17.826 19.646 2.859-14.216 13.875 3.356 19.593-17.572-9.251-17.572 9.251 3.356-19.593-14.217-13.875 19.647-2.859zM242.017 235.759l8.786 17.826 19.646 2.858-14.216 13.876 3.356 19.592-17.572-9.25-17.573 9.25 3.356-19.592-14.216-13.876 19.646-2.858zM200.916 561.559l6.565 13.32 14.681 2.136-10.623 10.368 2.508 14.641-13.131-6.913-13.131 6.913 2.508-14.641-10.623-10.368 14.681-2.136zM136.236 444.427l5.727 11.619 12.805 1.863-9.266 9.044 2.187 12.77-11.453-6.03-11.453 6.03 2.187-12.77-9.265-9.044 12.805-1.863zM210.716 778.877l5.462 11.082 12.215 1.777-8.839 8.627 2.087 12.181-10.925-5.751-10.925 5.751 2.087-12.181-8.839-8.627 12.215-1.777z" fill="#CEA4FF" p-id="8485"></path><path d="M373.276 600.41h-86.745V325.003c-36.596 27.62-77.893 48.601-123.922 63.001v-73.801C227.502 287.821 275.3 250.61 306.004 202.6h67.271v397.81zM856.571 404.205c2.351 138.013-47.798 205.206-150.476 201.605-99.137-2.419-149.315-69.583-150.476-201.605C559.16 269.82 609.309 200.21 706.095 195.4c99.137 2.418 149.287 72.001 150.476 208.805z m-92.056 0c1.162-97.202-17.703-144.003-56.65-140.404-40.136-1.181-60.19 45.62-60.19 140.404 0 92.421 20.054 138.604 60.19 138.604 38.947-0.001 57.812-46.183 56.65-138.604z" fill="#FFFFFF" p-id="8486"></path><path d="M510.443 960.681c91.175 0 175.977-27.275 246.702-74.104-12.157-5.397-25.47-10.231-32.983-30.61 0 0-19.255-69.847-90.805-56.818-64.688 11.778-121.853-93.019-127.478-138.76v-0.001c0.597-4.851 0.616-8.92 0-11.964-0.616 3.044-0.597 7.113 0 11.965-5.625 45.74-62.79 150.539-127.479 138.76-71.549-13.029-92.764 56.818-92.764 56.818-6.371 17.28-15.631 23.383-25.611 28.129 71.461 48.347 157.642 76.585 250.418 76.585z" fill="#ECF1F2" p-id="8487"></path><path d="M301.273 573.723v183.064l8.406-2.733s46.938-104.998 137.305-114.756l-36.428-193.994s-36.043 13.769-109.283 128.419z m299.83-128.419l-36.428 193.994c90.367 9.758 137.305 114.756 137.305 114.756l8.406 2.733V573.723c-73.24-114.65-109.283-128.419-109.283-128.419z" fill="#E24534" p-id="8488"></path><path d="M635.055 473.741c-26.123-28.617-33.952-28.437-33.952-28.437l-36.428 193.994c14.164 1.529 27.26 5.4 39.277 10.838 12.929-39.46 22.329-101.626 31.103-176.395zM446.984 639.298l-36.428-193.994s-6.138-2.143-32.261 26.474c8.773 74.769 16.483 138.897 29.412 178.357 12.017-5.437 25.113-9.308 39.277-10.837z" fill="#C4271C" p-id="8489"></path><path d="M505.83 19.065c-136.142 99.638-117.691 347.002-117.691 347.002 5.019 192.003 58.845 286.892 58.845 286.892 26.908 16.797 58.846 13.661 58.846 13.661s31.937 3.135 58.845-13.661c0 0 53.826-94.889 58.845-286.892 0 0.001 18.451-247.363-117.69-347.002z" fill="#FFD800" p-id="8490"></path><path d="M585.065 170.718c-4.571-67.413-66.908-68.493-52.791 0 0 0 17.936 352.209-17.597 458.123-35.534 105.914 42.304 28.154 52.791 0 4.867-12.732 48.324-133.721 17.597-458.123z" fill="#FFAE00" p-id="8491"></path><path d="M497.08 628.841c-35.534-105.915-17.597-458.123-17.597-458.123 14.117-68.493-48.22-67.413-52.791 0-30.726 324.402 12.704 437.165 22.497 458.123 9.793 20.958 83.425 105.914 47.891 0z" fill="#FFFFFF" p-id="8492"></path><path d="M505.83 169.342c34.427 0 67.78 4.188 99.478 12.03-16.233-60.926-45.867-123.07-99.478-162.307-53.611 39.236-83.246 101.38-99.479 162.307 31.699-7.842 65.051-12.03 99.479-12.03z" fill="#E24534" p-id="8493"></path><path d="M432.164 302.911a73.695 74.254 0 1 0 147.39 0 73.695 74.254 0 1 0-147.39 0Z" fill="#DCA000" p-id="8494"></path><path d="M462.026 302.911a43.833 44.166 0 1 0 87.666 0 43.833 44.166 0 1 0-87.666 0Z" fill="#FFFFFF" p-id="8495"></path><path d="M559.497 650.227l-53.667 8.198-53.667-8.198s-15.381 10.59-13.417 54.647c0 0 7.848 22.681 67.084 21.858 59.235 0.823 67.084-21.858 67.084-21.858 1.963-44.057-13.417-54.647-13.417-54.647z" fill="#E24534" p-id="8496"></path><path d="M301.273 540.934h-8.406c-6.191 0-11.209 4.893-11.209 10.93V773.18c0 6.036 5.018 10.928 11.209 10.928h8.406c6.19 0 11.209-4.892 11.209-10.928V551.864c0-6.037-5.019-10.93-11.209-10.93zM721.595 540.934h-8.406c-6.19 0-11.208 4.893-11.208 10.93V773.18c0 6.036 5.019 10.928 11.208 10.928h8.406c6.191 0 11.209-4.892 11.209-10.928V551.864c0-6.037-5.019-10.93-11.209-10.93z" fill="#FFD800" p-id="8497"></path><path d="M303.401 540.934h-6.81c-0.886 0-1.74 0.16-2.549 0.445 3.773 1.327 6.531 5.515 6.531 10.485V773.18c0 4.97-2.759 9.157-6.531 10.484a7.65 7.65 0 0 0 2.549 0.445h6.81c5.015 0 9.08-4.892 9.08-10.928V551.864c0.001-6.037-4.065-10.93-9.08-10.93zM724.787 540.934h-6.012c-0.782 0-1.536 0.16-2.25 0.445 3.331 1.327 5.766 5.515 5.766 10.485V773.18c0 4.97-2.435 9.157-5.766 10.484a6.048 6.048 0 0 0 2.25 0.445h6.012c4.427 0 8.017-4.892 8.017-10.928V551.864c0-6.037-3.589-10.93-8.017-10.93z" fill="#FFAE00" p-id="8498"></path></svg>